<mxfile host="Electron" modified="2023-11-06T11:29:29.654Z" agent="Mozilla/5.0 (Windows NT 10.0; Win64; x64) AppleWebKit/537.36 (KHTML, like Gecko) draw.io/22.0.3 Chrome/114.0.5735.289 Electron/25.8.4 Safari/537.36" etag="DNV0N4RH866FL16sSnOY" version="22.0.3" type="device">
  <diagram name="Page-1" id="OMk8Flor9-d7_5F8JqJ7">
    <mxGraphModel dx="973" dy="679" grid="1" gridSize="10" guides="1" tooltips="1" connect="1" arrows="1" fold="1" page="1" pageScale="1" pageWidth="850" pageHeight="1100" math="0" shadow="0">
      <root>
        <mxCell id="0" />
        <mxCell id="1" parent="0" />
        <mxCell id="OeZy0ZMXUKDgR2ET47Y--2" value="WPP&amp;nbsp;" style="text;html=1;align=center;verticalAlign=middle;resizable=0;points=[];autosize=1;strokeColor=none;fillColor=none;fontSize=16;" parent="1" vertex="1">
          <mxGeometry x="240" y="272" width="60" height="30" as="geometry" />
        </mxCell>
        <mxCell id="OeZy0ZMXUKDgR2ET47Y--3" value="Electricity" style="ellipse;whiteSpace=wrap;html=1;fillColor=#FFFFFF;strokeColor=#000000;" parent="1" vertex="1">
          <mxGeometry x="600" y="302" width="120" height="80" as="geometry" />
        </mxCell>
        <mxCell id="T-NbBw7F_VQ1Md_ChI5A-2" style="edgeStyle=orthogonalEdgeStyle;rounded=0;orthogonalLoop=1;jettySize=auto;html=1;exitX=1;exitY=0.5;exitDx=0;exitDy=0;" edge="1" parent="1" source="OeZy0ZMXUKDgR2ET47Y--6" target="OeZy0ZMXUKDgR2ET47Y--3">
          <mxGeometry relative="1" as="geometry" />
        </mxCell>
        <mxCell id="OeZy0ZMXUKDgR2ET47Y--6" value="Wind Power Plant&lt;br&gt;(WPP,Dummy, Electricity)" style="rounded=0;whiteSpace=wrap;html=1;fillColor=#fff2cc;strokeColor=#d6b656;" parent="1" vertex="1">
          <mxGeometry x="180" y="302" width="190" height="80" as="geometry" />
        </mxCell>
        <mxCell id="OeZy0ZMXUKDgR2ET47Y--7" value="" style="edgeStyle=orthogonalEdgeStyle;rounded=0;orthogonalLoop=1;jettySize=auto;html=1;" parent="1" source="OeZy0ZMXUKDgR2ET47Y--8" target="OeZy0ZMXUKDgR2ET47Y--6" edge="1">
          <mxGeometry relative="1" as="geometry" />
        </mxCell>
        <mxCell id="OeZy0ZMXUKDgR2ET47Y--8" value="dummy" style="ellipse;whiteSpace=wrap;html=1;dashed=1;dashPattern=8 8;" parent="1" vertex="1">
          <mxGeometry x="23" y="302" width="120" height="80" as="geometry" />
        </mxCell>
        <mxCell id="T-NbBw7F_VQ1Md_ChI5A-3" value="&lt;h1&gt;&lt;font style=&quot;font-size: 14px;&quot;&gt;Availability Profile&lt;/font&gt;&lt;/h1&gt;&lt;p&gt;An availbility profile is defined to constraint the power output of the conversion subprocess.&lt;/p&gt;" style="text;html=1;strokeColor=none;fillColor=none;spacing=5;spacingTop=-20;whiteSpace=wrap;overflow=hidden;rounded=0;" vertex="1" parent="1">
          <mxGeometry x="386" y="303" width="230" height="120" as="geometry" />
        </mxCell>
      </root>
    </mxGraphModel>
  </diagram>
</mxfile>
